<svg width="250" height="250" viewBox="0 0 250 250" fill="none" xmlns="http://www.w3.org/2000/svg">
<rect width="250" height="250" fill="white"/>
<path d="M154.803 133.249H151.199C159.936 125.616 165.463 114.399 165.463 101.913V47.274H175V76.726H185.274V47.274H194.349V37H55.6507V47.274H82.244V101.913C82.244 114.399 87.7729 125.616 96.5085 133.249H95.1975C70.275 133.249 50 153.525 50 178.446V212.342H200V178.446C200 153.525 179.725 133.249 154.803 133.249ZM155.189 47.274V81.1781H92.5179V47.274H155.189ZM92.5179 101.913V91.4521H155.189V101.913C155.189 119.192 141.132 133.249 123.854 133.249C106.575 133.249 92.5179 119.192 92.5179 101.913ZM146.71 143.523L125 172.881L103.29 143.523H146.71ZM189.726 202.068H60.274V178.446C60.274 160.706 73.5713 146.012 90.7213 143.809L125 190.16L159.279 143.809C176.429 146.012 189.726 160.706 189.726 178.446V202.068Z" fill="#9C2D9C"/>
</svg>
