<svg width="32" height="32" viewBox="0 0 32 32" fill="none" xmlns="http://www.w3.org/2000/svg">
<rect width="32" height="32" fill="white"/>
<path d="M19.8148 17.0559H19.3534C20.4718 16.0788 21.1793 14.643 21.1793 13.0449V6.05109H22.4V9.82095H23.7151V6.05109H24.8767V4.73602H7.12331V6.05109H10.5273V13.0449C10.5273 14.643 11.235 16.0788 12.3531 17.0559H12.1853C8.99523 17.0559 6.40002 19.6513 6.40002 22.8412V27.1799H25.6V22.8412C25.6 19.6513 23.0048 17.0559 19.8148 17.0559ZM19.8642 6.05109V10.3908H11.8423V6.05109H19.8642ZM11.8423 13.0449V11.7059H19.8642V13.0449C19.8642 15.2566 18.0649 17.0559 15.8533 17.0559C13.6416 17.0559 11.8423 15.2566 11.8423 13.0449ZM18.779 18.371L16 22.1288L13.2211 18.371H18.779ZM24.285 25.8648H7.71509V22.8412C7.71509 20.5704 9.41715 18.6896 11.6124 18.4076L16 24.3405L20.3877 18.4076C22.5829 18.6896 24.285 20.5704 24.285 22.8412V25.8648Z" fill="#9C2D9C"/>
</svg>
