<svg width="40" height="40" viewBox="0 0 40 40" fill="none" xmlns="http://www.w3.org/2000/svg">
<g clip-path="url(#clip0_307_30)">
<path d="M37.3334 17.9996H36.6667V15.333C36.6637 12.7569 34.5762 10.6692 32.0001 10.6663H20.6666V6.5996C22.3433 6.25734 23.4884 4.70116 23.3164 2.99859C23.1445 1.29601 21.7113 0.000305176 20 0.000305176C18.2887 0.000305176 16.8555 1.29609 16.6835 2.99859C16.5115 4.70116 17.6566 6.25734 19.3333 6.5996V10.6662H8C5.42391 10.6692 3.33625 12.7568 3.33336 15.3329V17.9995H2.66672C1.19391 17.9996 0 19.1935 0 20.6662V24.6662C0 26.139 1.19391 27.3329 2.66664 27.3329H3.33328V29.9995C3.33625 32.5756 5.42383 34.6633 7.99992 34.6662V39.3328C7.9999 39.4535 8.03265 39.572 8.09467 39.6755C8.1567 39.779 8.24567 39.8638 8.3521 39.9207C8.45853 39.9777 8.57842 40.0047 8.69898 39.9988C8.81954 39.9929 8.93625 39.9544 9.03664 39.8874L16.7033 34.7774C16.812 34.7052 16.9394 34.6665 17.0699 34.6661H32C34.5761 34.6631 36.6637 32.5755 36.6666 29.9994V27.3328H37.3333C38.806 27.3328 39.9999 26.1389 39.9999 24.6662V20.6662C40 19.1935 38.8061 17.9996 37.3334 17.9996ZM18 3.33296C18 2.22843 18.8955 1.33296 20 1.33296C21.1046 1.33296 22 2.22843 22 3.33296C22 4.43749 21.1046 5.33296 20 5.33296C18.8955 5.33296 18 4.43749 18 3.33296ZM2.66664 25.9996C1.93023 25.9996 1.33328 25.4026 1.33328 24.6662V20.6662C1.33328 19.9298 1.93023 19.3329 2.66664 19.3329H3.33328V25.9995H2.66664V25.9996ZM35.3334 29.9996C35.3312 31.8396 33.8401 33.3307 32 33.333H17.07C16.6753 33.3315 16.2892 33.4476 15.9607 33.6663L9.33336 38.087V34.6663C9.33336 33.9299 8.73641 33.333 8 33.333C6.16 33.3308 4.66891 31.8397 4.66664 29.9996V15.333C4.66883 13.493 6.15992 12.0019 8 11.9996H32C33.84 12.0018 35.3311 13.4929 35.3334 15.333V29.9996ZM38.6666 24.6662C38.6666 25.4026 38.0697 25.9996 37.3333 25.9996H36.6666V19.333H37.3333C38.0697 19.333 38.6666 19.9299 38.6666 20.6663V24.6662Z" fill="black" stroke="black"/>
<path d="M11.9999 17.333C10.1589 17.333 8.6665 18.8254 8.6665 20.6663C8.6665 22.5073 10.1589 23.9997 11.9999 23.9997C13.8408 23.9997 15.3332 22.5073 15.3332 20.6663C15.331 18.8262 13.8399 17.3351 11.9999 17.333ZM11.9999 22.6662C10.8953 22.6662 9.99986 21.7708 9.99986 20.6662C9.99986 19.5617 10.8953 18.6662 11.9999 18.6662C13.1044 18.6662 13.9999 19.5617 13.9999 20.6662C13.9999 21.7708 13.1044 22.6662 11.9999 22.6662ZM27.9999 17.333C26.1589 17.333 24.6665 18.8254 24.6665 20.6663C24.6665 22.5073 26.1589 23.9997 27.9999 23.9997C29.8408 23.9997 31.3332 22.5073 31.3332 20.6663C31.331 18.8262 29.8399 17.3351 27.9999 17.333ZM27.9999 22.6662C26.8953 22.6662 25.9999 21.7708 25.9999 20.6662C25.9999 19.5617 26.8953 18.6662 27.9999 18.6662C29.1044 18.6662 29.9999 19.5617 29.9999 20.6662C29.9999 21.7708 29.1044 22.6662 27.9999 22.6662ZM23.6932 25.4456C23.5453 25.3513 23.3664 25.3186 23.1947 25.3543C23.0229 25.3901 22.872 25.4915 22.7739 25.6369C22.746 25.679 22.0539 26.6662 19.9999 26.6662C17.9639 26.6662 17.2666 25.6955 17.2266 25.6383C17.1302 25.4927 16.9805 25.3908 16.8097 25.3544C16.639 25.318 16.4608 25.3501 16.3134 25.4437C16.166 25.5372 16.0612 25.6849 16.0215 25.855C15.9819 26.025 16.0105 26.2038 16.1013 26.353C16.1433 26.4196 17.1633 27.9996 19.9999 27.9996C22.8366 27.9996 23.8566 26.4203 23.8986 26.353C23.9906 26.2051 24.0206 26.027 23.9821 25.8571C23.9437 25.6873 23.8399 25.5395 23.6932 25.4456Z" fill="black" stroke="black"/>
</g>
<defs>
<clipPath id="clip0_307_30">
<rect width="40" height="40" fill="white"/>
</clipPath>
</defs>
</svg>
