<svg width="40" height="41" viewBox="0 0 40 41" fill="none" xmlns="http://www.w3.org/2000/svg">
<path d="M36.71 35.3585H3.28859C1.47464 35.3585 0 33.8838 0 32.0699V7.93157C0 6.11762 1.47464 4.64297 3.28859 4.64297H10.7162C12.5302 4.64297 14.0048 6.11762 14.0048 7.93157V9.78847C14.0048 10.019 14.1995 10.2137 14.43 10.2137H36.7114C38.5254 10.2137 40 11.6883 40 13.5023V32.0699C39.9986 33.8824 38.5225 35.3585 36.71 35.3585ZM3.28859 7.50636C3.05809 7.50636 2.86338 7.70107 2.86338 7.93157V32.0699C2.86338 32.3004 3.05809 32.4951 3.28859 32.4951H36.7085C36.9405 32.4951 37.1352 32.3004 37.1352 32.0699V13.5023C37.1352 13.2718 36.9405 13.0771 36.7085 13.0771H14.4286C12.6146 13.0771 11.14 11.6024 11.14 9.78847V7.93157C11.14 7.70107 10.9453 7.50636 10.7148 7.50636H3.28859Z" fill="black"/>
</svg>
