<svg width="40" height="40" viewBox="0 0 40 40" fill="none" xmlns="http://www.w3.org/2000/svg">
<g clip-path="url(#clip0_307_2)">
<path d="M26.9653 12.5373H13.035C12.2106 12.5373 11.5425 13.2055 11.5425 14.0298C11.5425 14.8542 12.2106 15.5223 13.035 15.5223H26.9653C27.7897 15.5223 28.4578 14.8542 28.4578 14.0298C28.4578 13.2055 27.7897 12.5373 26.9653 12.5373Z" fill="black"/>
<path d="M26.9653 18.5075H13.035C12.2106 18.5075 11.5425 19.1756 11.5425 20C11.5425 20.8244 12.2106 21.4925 13.035 21.4925H26.9653C27.7897 21.4925 28.4578 20.8244 28.4578 20C28.4578 19.1756 27.7897 18.5075 26.9653 18.5075Z" fill="black"/>
<path d="M26.9653 24.4776H13.035C12.2106 24.4776 11.5425 25.1457 11.5425 25.9701C11.5425 26.7944 12.2106 27.4626 13.035 27.4626H26.9653C27.7897 27.4626 28.4578 26.7944 28.4578 25.9701C28.4578 25.1457 27.7897 24.4776 26.9653 24.4776Z" fill="black"/>
<path d="M19.9999 0C9.16408 0 0.348145 8.81594 0.348145 19.6517C0.348145 22.1139 0.800879 24.5229 1.69588 26.8164C2.39143 28.5781 3.31283 30.1965 4.44064 31.6403L1.76158 37.9219C1.54666 38.4254 1.62479 39.0055 1.96455 39.4343C2.25064 39.7955 2.68346 40 3.13416 40C3.21924 40 3.30533 39.993 3.39088 39.9776L13.5406 38.2064C15.5735 38.9348 17.7442 39.3034 19.9999 39.3034C30.8357 39.3034 39.6516 30.4875 39.6516 19.6517C39.6516 8.81594 30.8357 0 19.9999 0ZM19.9999 36.3184C17.9656 36.3184 16.0198 35.9672 14.2168 35.2741C13.9646 35.1771 13.6905 35.1498 13.4248 35.197L5.58541 36.5652L7.54166 31.9786C7.76557 31.4537 7.67049 30.8467 7.29689 30.4154C6.11385 29.0502 5.16354 27.4706 4.47502 25.7259C3.71729 23.7851 3.33322 21.7413 3.33322 19.6517C3.33322 10.4617 10.8098 2.98508 19.9999 2.98508C29.1899 2.98508 36.6665 10.4617 36.6665 19.6517C36.6665 28.8417 29.1899 36.3184 19.9999 36.3184Z" fill="black"/>
</g>
<defs>
<clipPath id="clip0_307_2">
<rect width="40" height="40" fill="white"/>
</clipPath>
</defs>
</svg>
