<svg width="50" height="32" viewBox="0 0 50 32" fill="none" xmlns="http://www.w3.org/2000/svg">
<g clip-path="url(#clip0_305_37)">
<path d="M43.0342 14.0954C44.0171 13.407 44.755 12.4232 45.1407 11.2868C45.5263 10.1504 45.5396 8.92066 45.1787 7.77618C44.8178 6.6317 44.1014 5.63208 43.1337 4.92251C42.1659 4.21294 40.9971 3.83038 39.7971 3.83038C38.597 3.83038 37.4282 4.21294 36.4604 4.92251C35.4927 5.63208 34.7763 6.6317 34.4154 7.77618C34.0545 8.92066 34.0678 10.1504 34.4535 11.2868C34.8391 12.4232 35.577 13.407 36.5599 14.0954C35.3292 14.5189 34.1954 15.1839 33.225 16.0513C31.889 14.9114 30.3303 14.0621 28.6481 13.5574C29.9847 12.7499 31.0202 11.527 31.5962 10.0755C32.1723 8.62406 32.2572 7.0239 31.8381 5.5196C31.419 4.0153 30.5188 2.68961 29.2752 1.74513C28.0316 0.800652 26.513 0.289341 24.9514 0.289341C23.3898 0.289341 21.8711 0.800652 20.6275 1.74513C19.3839 2.68961 18.4838 4.0153 18.0646 5.5196C17.6455 7.0239 17.7305 8.62406 18.3065 10.0755C18.8826 11.527 19.918 12.7499 21.2546 13.5574C19.5933 14.0622 18.0525 14.9008 16.7266 16.0219C15.7632 15.1746 14.6436 14.5235 13.4308 14.1051C14.4137 13.4167 15.1516 12.4329 15.5373 11.2965C15.9229 10.1601 15.9362 8.93039 15.5753 7.78591C15.2144 6.64143 14.498 5.64182 13.5303 4.93225C12.5625 4.22268 11.3937 3.84011 10.1937 3.84011C8.99362 3.84011 7.82483 4.22268 6.85705 4.93225C5.88927 5.64182 5.1729 6.64143 4.81198 7.78591C4.45107 8.93039 4.46441 10.1601 4.85006 11.2965C5.23571 12.4329 5.9736 13.4167 6.95654 14.1051C5.00959 14.7778 3.32078 16.0407 2.1252 17.718C0.929627 19.3954 0.286774 21.4039 0.286133 23.4637L0.286133 24.1091C0.286993 24.119 0.29129 24.1282 0.29827 24.1352C0.30525 24.1422 0.314467 24.1465 0.324301 24.1473H12.2861C12.2156 24.6955 12.1796 25.2475 12.1785 25.8002V26.4652C12.178 27.1487 12.3122 27.8256 12.5734 28.4572C12.8347 29.0888 13.2179 29.6626 13.7011 30.146C14.1843 30.6294 14.7581 31.0128 15.3895 31.2742C16.021 31.5357 16.6979 31.6701 17.3813 31.6698H32.5401C33.2234 31.6701 33.9001 31.5358 34.5315 31.2744C35.1629 31.013 35.7366 30.6298 36.2197 30.1466C36.7029 29.6634 37.0862 29.0897 37.3475 28.4584C37.6089 27.827 37.7433 27.1503 37.743 26.467V25.8019C37.7418 25.2492 37.7059 24.6972 37.6353 24.149H49.6754C49.6852 24.1482 49.6944 24.1439 49.7014 24.1369C49.7084 24.1299 49.7127 24.1207 49.7135 24.1109V23.4637C49.7086 21.4024 49.0632 19.3937 47.8666 17.7153C46.6699 16.0369 44.9813 14.7719 43.0342 14.0954ZM35.7189 9.46946C35.7191 8.66622 35.9564 7.88092 36.4012 7.21205C36.8459 6.54319 37.4783 6.02056 38.2189 5.70972C38.9596 5.39888 39.7755 5.31368 40.5644 5.4648C41.3533 5.61592 42.08 5.99664 42.6534 6.55919C43.2267 7.12174 43.6212 7.84107 43.7873 8.62695C43.9533 9.41283 43.8837 10.2303 43.5869 10.9767C43.2902 11.7231 42.7797 12.3653 42.1194 12.8227C41.4591 13.2801 40.6785 13.5323 39.8754 13.5477H39.7189C38.6504 13.5288 37.6321 13.0907 36.8837 12.3278C36.1353 11.5649 35.7169 10.5383 35.7185 9.46965L35.7189 9.46946ZM19.347 7.4353C19.3469 6.34455 19.6663 5.27766 20.2656 4.36634C20.865 3.45502 21.7181 2.73917 22.7197 2.30718C23.7212 1.8752 24.8274 1.74598 25.9015 1.93548C26.9757 2.12498 27.9708 2.62491 28.7641 3.37354C29.5574 4.12217 30.1141 5.08673 30.3654 6.14813C30.6167 7.20953 30.5517 8.32129 30.1784 9.34617C29.8051 10.371 29.1398 11.2642 28.2647 11.9152C27.3896 12.5663 26.343 12.9469 25.254 13.0099H24.6086C23.1865 12.9258 21.8501 12.3021 20.8722 11.2661C19.8944 10.2301 19.3488 8.85991 19.347 7.4353ZM6.08555 9.46946C6.0857 8.66622 6.32304 7.88092 6.7678 7.21205C7.21256 6.54319 7.84493 6.02056 8.58558 5.70972C9.32623 5.39888 10.1422 5.31368 10.9311 5.4648C11.72 5.61592 12.4467 5.99664 13.02 6.55919C13.5934 7.12174 13.9878 7.84107 14.1539 8.62695C14.32 9.41283 14.2503 10.2303 13.9536 10.9767C13.6569 11.7231 13.1464 12.3653 12.4861 12.8227C11.8258 13.2801 11.0451 13.5323 10.242 13.5477H10.0855C9.01763 13.5271 8.00042 13.0883 7.25248 12.3258C6.50454 11.5633 6.08555 10.5378 6.08555 9.46965V9.46946ZM12.5598 22.5744H1.8701C2.08928 20.5374 3.04916 18.6519 4.56733 17.2763C6.0855 15.9006 8.05616 15.1306 10.1048 15.1126H10.2222C12.1781 15.123 14.067 15.8265 15.5533 17.0979C14.1202 18.6495 13.092 20.5306 12.5598 22.5746V22.5744ZM36.1586 26.4675C36.1569 27.4318 35.7731 28.3561 35.0912 29.0379C34.4093 29.7197 33.4849 30.1034 32.5206 30.1049H17.3617C16.3972 30.1035 15.4727 29.7197 14.7907 29.0377C14.1088 28.3558 13.725 27.4312 13.7235 26.4668V25.8017C13.7264 22.8846 14.8639 20.0831 16.8953 17.9896C18.9267 15.8961 21.6928 14.6748 24.6084 14.5842C24.7161 14.5939 24.8334 14.5939 24.9409 14.5939C25.0483 14.5939 25.1659 14.5939 25.2733 14.5842C28.189 14.6748 30.955 15.8961 32.9865 17.9896C35.0179 20.0831 36.1553 22.8846 36.1582 25.8017L36.1586 26.4675ZM37.3227 22.5744C36.7946 20.5468 35.7771 18.6796 34.3594 17.1368C35.8545 15.8437 37.7616 15.1259 39.7384 15.1124H39.8557C41.9044 15.1304 43.8751 15.9004 45.3932 17.2761C46.9114 18.6518 47.8713 20.5372 48.0905 22.5742L37.3227 22.5744Z" fill="black" stroke="black"/>
</g>
<defs>
<clipPath id="clip0_305_37">
<rect width="50" height="31.9561" fill="white"/>
</clipPath>
</defs>
</svg>
