<svg width="40" height="40" viewBox="0 0 40 40" fill="none" xmlns="http://www.w3.org/2000/svg">
<g clip-path="url(#clip0_112_269)">
<path d="M20 0C8.972 0 0 8.97212 0 20.0001C0 31.0281 8.972 40 20 40C31.028 40 40 31.0281 40 20.0001C40 8.97212 31.028 0 20 0ZM20 36.3636C10.977 36.3636 3.63636 29.023 3.63636 20.0001C3.63636 10.9772 10.977 3.63636 20 3.63636C29.023 3.63636 36.3636 10.9772 36.3636 20.0001C36.3636 29.023 29.0229 36.3636 20 36.3636Z" fill="black"/>
<path d="M19.9999 8.48485C18.6634 8.48485 17.5762 9.57285 17.5762 10.9102C17.5762 12.2463 18.6634 13.3333 19.9999 13.3333C21.3364 13.3333 22.4237 12.2463 22.4237 10.9102C22.4237 9.57285 21.3364 8.48485 19.9999 8.48485Z" fill="black"/>
<path d="M19.9998 16.9697C18.9957 16.9697 18.1816 17.7838 18.1816 18.7879V29.697C18.1816 30.7011 18.9957 31.5152 19.9998 31.5152C21.0039 31.5152 21.818 30.7011 21.818 29.697V18.7879C21.818 17.7838 21.0039 16.9697 19.9998 16.9697Z" fill="black"/>
</g>
<defs>
<clipPath id="clip0_112_269">
<rect width="40" height="40" fill="white"/>
</clipPath>
</defs>
</svg>
