<svg width="40" height="40" viewBox="0 0 40 40" fill="none" xmlns="http://www.w3.org/2000/svg">
<path d="M36.2494 5H3.74993C2.75572 5.0011 1.80255 5.39654 1.09955 6.09955C0.396536 6.80255 0.00110128 7.75572 0 8.74993L0 31.2495C0.00110128 32.2437 0.396536 33.1969 1.09955 33.8999C1.80255 34.6029 2.75572 34.9983 3.74993 34.9994H36.2494C37.2437 34.9985 38.197 34.6032 38.9002 33.9001C39.6034 33.1971 39.9989 32.2438 40 31.2495V8.74993C39.9989 7.7556 39.6034 6.80232 38.9002 6.09929C38.197 5.39626 37.2437 5.00091 36.2494 5ZM36.2494 7.5C36.4139 7.50025 36.5767 7.53317 36.7284 7.59684L20 22.0957L3.27116 7.5967C3.42287 7.53306 3.5857 7.50015 3.75022 7.49986L36.2494 7.5ZM36.2494 32.4996H3.74993C3.41845 32.4994 3.1006 32.3676 2.8662 32.1332C2.63181 31.8988 2.50005 31.581 2.49986 31.2495V10.2379L19.1805 24.6944C19.408 24.8912 19.6987 24.9996 19.9996 24.9996C20.3004 24.9996 20.5912 24.8912 20.8187 24.6944L37.4993 10.2379V31.2495C37.499 31.5809 37.3672 31.8987 37.1329 32.133C36.8985 32.3674 36.5808 32.4992 36.2494 32.4994V32.4996Z" fill="black"/>
</svg>
