<svg width="23" height="30" viewBox="0 0 23 30" fill="none" xmlns="http://www.w3.org/2000/svg">
<g clip-path="url(#clip0_114_591)">
<path d="M22.3169 6.43379L16.0669 0.185145C16.009 0.126694 15.9402 0.0802483 15.8644 0.0484756C15.7885 0.0167028 15.7071 0.000228887 15.6249 0L2.49946 0C1.83679 0.000735078 1.20147 0.264306 0.732885 0.732887C0.264305 1.20147 0.000735078 1.83679 0 2.49946V27.5001C0.000735078 28.1627 0.264305 28.7981 0.732885 29.2666C1.20147 29.7352 1.83679 29.9988 2.49946 29.9995H19.9994C20.6621 29.9988 21.2974 29.7352 21.766 29.2666C22.2345 28.7981 22.4981 28.1627 22.4988 27.5001V6.8749C22.499 6.70958 22.4336 6.55095 22.3169 6.43379ZM16.2502 2.1338L20.366 6.24865H17.4999C17.1685 6.24865 16.8506 6.11698 16.6162 5.88261C16.3819 5.64824 16.2502 5.33037 16.2502 4.99892V2.1338ZM21.2491 27.4987C21.2491 27.8301 21.1174 28.148 20.8831 28.3824C20.6487 28.6167 20.3308 28.7484 19.9994 28.7484H2.49946C2.33534 28.7484 2.17283 28.7161 2.02121 28.6533C1.86958 28.5905 1.73182 28.4984 1.61577 28.3824C1.49972 28.2663 1.40766 28.1286 1.34486 27.9769C1.28206 27.8253 1.24973 27.6628 1.24973 27.4987V2.49946C1.24973 2.33534 1.28206 2.17283 1.34486 2.02121C1.40766 1.86958 1.49972 1.73182 1.61577 1.61577C1.73182 1.49972 1.86958 1.40766 2.02121 1.34486C2.17283 1.28206 2.33534 1.24973 2.49946 1.24973H15V4.99892C15.0007 5.66159 15.2643 6.29691 15.7329 6.76549C16.2015 7.23407 16.8368 7.49764 17.4995 7.49838H21.2486L21.2491 27.4987Z" fill="white"/>
<path d="M14.4366 18.3474C13.9153 17.9451 13.4164 17.5146 12.942 17.0579C12.4657 16.5816 12.0417 16.1206 11.6733 15.6809C12.2482 13.9039 12.5004 12.9879 12.5004 12.4996C12.5004 10.4251 11.7511 10.0002 10.6254 10.0002C9.77048 10.0002 8.75033 10.4445 8.75033 12.5598C8.75033 13.4925 9.25948 14.6246 10.2736 15.9387C10.026 16.695 9.73484 17.567 9.4076 18.5506C9.25023 19.0223 9.07943 19.4592 8.89845 19.8633C8.75126 19.9286 8.6087 19.9952 8.47076 20.0642C7.97411 20.3127 7.50199 20.5358 7.06458 20.7437C5.06872 21.6884 3.75049 22.3137 3.75049 23.5477C3.75049 24.4438 4.7225 24.9983 5.62554 24.9983C6.78779 24.9983 8.54158 23.4463 9.82417 20.8325C11.2169 20.3196 12.6527 19.9323 14.1144 19.6754C15.1605 20.4798 16.3158 21.2491 16.8759 21.2491C18.4256 21.2491 18.7509 20.353 18.7509 19.6018C18.7509 18.1243 17.0629 18.1243 16.2515 18.1243C15.6425 18.1612 15.0364 18.2357 14.4366 18.3474ZM5.62508 23.7495C5.39998 23.7557 5.17952 23.6848 5.00022 23.5486C5.00022 23.1057 6.32169 22.4794 7.59965 21.874L7.84682 21.7573C6.90814 23.1191 5.97963 23.7504 5.62508 23.7504V23.7495ZM9.99867 12.5616C9.99867 11.2517 10.4051 11.2517 10.6235 11.2517C11.0656 11.2517 11.2484 11.2517 11.2484 12.5015C11.1485 13.1672 10.9818 13.8211 10.7508 14.4534C10.3346 13.9019 10.0747 13.2484 9.99867 12.5616ZM10.4777 19.2792C10.5169 19.1705 10.5547 19.0607 10.5911 18.9496C10.8226 18.2553 11.0318 17.6286 11.2179 17.0662C11.4774 17.352 11.7569 17.6451 12.0566 17.9457C12.1737 18.0628 12.4643 18.3266 12.8513 18.6566C12.0816 18.8209 11.2627 19.0292 10.4791 19.2778L10.4777 19.2792ZM17.4984 19.6032C17.4984 19.8841 17.4984 20.0003 16.9185 20.004C16.5437 19.8512 16.1908 19.6496 15.8687 19.4046C16.0451 19.3852 16.1751 19.3754 16.2482 19.3754C17.173 19.3754 17.4355 19.4657 17.4998 19.6027L17.4984 19.6032Z" fill="white"/>
</g>
<defs>
<clipPath id="clip0_114_591">
<rect width="22.5002" height="30" fill="white"/>
</clipPath>
</defs>
</svg>
