<svg width="41" height="40" viewBox="0 0 41 40" fill="none" xmlns="http://www.w3.org/2000/svg">
<g clip-path="url(#clip0_306_41)">
<path d="M20.2144 8.51953H20.1806C17.0996 8.50991 14.1389 9.71446 11.9397 11.8723C10.7962 13.0018 9.90126 14.3577 9.31212 15.8531C8.72299 17.3486 8.45267 18.9506 8.51847 20.5565C8.58427 22.1624 8.98474 23.7369 9.69424 25.1792C10.4037 26.6214 11.4066 27.8995 12.6387 28.9317C13.0437 29.2604 13.723 30.3075 13.723 33.6284V38.9723C13.723 39.1676 13.8006 39.3549 13.9387 39.4931C14.0768 39.6312 14.2642 39.7088 14.4595 39.7088H25.9359C26.1312 39.7088 26.3185 39.6312 26.4566 39.4931C26.5947 39.3549 26.6723 39.1676 26.6723 38.9723V33.6284C26.6723 33.6226 26.6723 33.617 26.6723 33.6114C26.6723 33.6057 26.6723 33.5999 26.6723 33.5941C26.6723 30.2427 27.3519 29.1913 27.7575 28.8628C30.4202 26.702 31.8867 23.583 31.8867 20.0806C31.8932 18.5523 31.5928 17.0383 31.0033 15.6283C30.4138 14.2183 29.5472 12.941 28.4549 11.8721C26.2558 9.71443 23.2952 8.50996 20.2144 8.51953ZM25.199 38.2357H15.1955V34.3649H22.1639C22.1967 34.3697 22.2298 34.3722 22.263 34.3725C22.2961 34.3723 22.3292 34.3697 22.362 34.3649H25.1992L25.199 38.2357ZM18.7576 22.6124H21.6506C21.5815 25.3965 21.5341 30.1353 21.5265 32.892H18.8809C18.8729 30.3396 18.8279 25.4726 18.7578 22.6124H18.7576ZM26.829 27.7188C25.8194 28.5378 25.2878 30.2353 25.2103 32.8918H23.0004C23.0085 29.8701 23.0621 25.2303 23.1246 22.6122H24.6993C26.0196 22.6122 27.1338 21.4434 27.1338 20.0598C27.133 19.4088 26.8781 18.7839 26.4234 18.318C25.9687 17.8522 25.35 17.5823 24.6993 17.5658C23.4885 17.5658 22.0768 18.323 21.7459 20.4518C21.7296 20.557 21.7139 20.7961 21.6987 21.1393H18.7114C18.6959 20.7819 18.6795 20.5326 18.6625 20.4223C18.4444 19.0131 17.5544 17.5072 15.7097 17.5072C14.3894 17.5072 13.2755 18.676 13.2755 20.0598C13.2755 21.4436 14.3902 22.6122 15.7097 22.6122H17.2845C17.347 25.2429 17.401 29.8775 17.4084 32.8918H15.1821C15.1002 30.2784 14.5702 28.603 13.5652 27.7877C12.4296 26.8525 11.5181 25.6746 10.8977 24.3406C10.2774 23.0067 9.96391 21.5506 9.98042 20.0796C9.97439 18.7471 10.2359 17.427 10.7496 16.1975C11.2632 14.968 12.0184 13.8541 12.9705 12.9219C14.9061 11.0426 17.4979 9.99143 20.1957 9.99143C22.8936 9.99143 25.4853 11.0426 27.421 12.9219C28.3731 13.8541 29.1283 14.968 29.6419 16.1975C30.1555 17.427 30.4171 18.7471 30.4111 20.0796C30.432 21.5412 30.1205 22.9884 29.5 24.3118C28.8794 25.6353 27.9662 26.8004 26.8292 27.719L26.829 27.7188ZM23.1699 21.1395C23.1802 20.9065 23.1907 20.7473 23.2009 20.6776C23.4229 19.2515 24.2346 19.0387 24.6991 19.0387C24.9597 19.0533 25.2048 19.1673 25.3837 19.3573C25.5627 19.5473 25.6619 19.7988 25.6609 20.0598C25.6609 20.6248 25.2025 21.1393 24.6991 21.1393L23.1699 21.1395ZM17.2391 21.1395H15.7093C15.206 21.1395 14.748 20.625 14.748 20.06C14.748 19.495 15.2062 18.9803 15.7093 18.9803C16.7877 18.9803 17.1103 20.025 17.2065 20.6479C17.2173 20.7205 17.2284 20.89 17.2393 21.1397L17.2391 21.1395Z" fill="black" stroke="black"/>
<path d="M25.4127 7.66582C25.5015 7.70404 25.5971 7.72435 25.6938 7.72559C25.7905 7.72682 25.8865 7.70897 25.9764 7.67304C26.0662 7.63712 26.148 7.58382 26.2172 7.51622C26.2864 7.44861 26.3416 7.36802 26.3796 7.27906L28.9147 1.36359C28.9543 1.27446 28.9759 1.17834 28.978 1.08082C28.9802 0.983294 28.963 0.88631 28.9274 0.795497C28.8918 0.704684 28.8385 0.621852 28.7706 0.55181C28.7027 0.481769 28.6215 0.425913 28.5319 0.387487C28.4422 0.349061 28.3458 0.328831 28.2483 0.327971C28.1507 0.32711 28.054 0.345637 27.9637 0.382475C27.8733 0.419313 27.7912 0.473729 27.7221 0.542562C27.653 0.611395 27.5982 0.693274 27.561 0.783444L25.0259 6.69891C24.9878 6.78779 24.9676 6.88331 24.9664 6.98001C24.9652 7.07671 24.9831 7.1727 25.019 7.26249C25.0549 7.35228 25.1081 7.43411 25.1757 7.50332C25.2432 7.57252 25.3238 7.62774 25.4127 7.66582Z" fill="black" stroke="black"/>
<path d="M14.0506 7.27982C14.0865 7.36962 14.1398 7.45147 14.2073 7.52069C14.2749 7.58991 14.3554 7.64514 14.4443 7.68324C14.5332 7.72133 14.6287 7.74154 14.7255 7.74272C14.8222 7.74389 14.9182 7.72601 15.008 7.69008C15.0978 7.65415 15.1796 7.60089 15.2488 7.53334C15.3181 7.46578 15.3733 7.38525 15.4114 7.29635C15.4495 7.20744 15.4697 7.11191 15.4709 7.01519C15.472 6.91848 15.4542 6.82248 15.4182 6.73268L13.0277 0.757415C12.9918 0.667613 12.9386 0.585765 12.871 0.516542C12.8035 0.447319 12.723 0.392078 12.6341 0.353973C12.5452 0.315868 12.4497 0.295645 12.3529 0.294458C12.2562 0.293272 12.1602 0.311146 12.0704 0.347059C11.8891 0.419589 11.7439 0.561194 11.667 0.740723C11.6289 0.829617 11.6087 0.925146 11.6075 1.02186C11.6063 1.11857 11.6242 1.21456 11.6601 1.30436L14.0506 7.27982Z" fill="black" stroke="black"/>
<path d="M0.784567 12.9147L6.69925 15.4514C6.87876 15.5284 7.08151 15.531 7.2629 15.4585C7.44428 15.386 7.58945 15.2445 7.66646 15.065C7.74347 14.8854 7.74602 14.6827 7.67354 14.5013C7.60106 14.3199 7.45949 14.1748 7.27998 14.0977L1.3651 11.5611C1.1856 11.4841 0.982857 11.4815 0.801488 11.554C0.62012 11.6265 0.47498 11.7681 0.397995 11.9476C0.321011 12.1271 0.31849 12.3299 0.390987 12.5112C0.463483 12.6926 0.605058 12.8377 0.784567 12.9147Z" fill="black" stroke="black"/>
<path d="M6.73287 25.0576L0.757219 27.4495C0.666128 27.4844 0.582892 27.5371 0.512346 27.6045C0.441799 27.6719 0.385351 27.7527 0.346281 27.8421C0.307211 27.9315 0.286299 28.0277 0.28476 28.1253C0.28322 28.2228 0.301084 28.3197 0.337314 28.4103C0.373543 28.5009 0.427416 28.5834 0.4958 28.653C0.564185 28.7226 0.645717 28.7779 0.73566 28.8157C0.825602 28.8535 0.92216 28.873 1.01972 28.8732C1.11729 28.8733 1.21391 28.8541 1.30397 28.8166L7.27962 26.4249C7.3694 26.389 7.45122 26.3357 7.52042 26.2682C7.58961 26.2006 7.64482 26.1201 7.6829 26.0312C7.72098 25.9424 7.74118 25.8468 7.74234 25.7502C7.74351 25.6535 7.72562 25.5575 7.68969 25.4677C7.65376 25.3779 7.60051 25.2961 7.53296 25.2269C7.46541 25.1577 7.3849 25.1025 7.29601 25.0644C7.20713 25.0264 7.11161 25.0062 7.01492 25.005C6.91823 25.0038 6.82226 25.0217 6.73248 25.0576H6.73287Z" fill="black" stroke="black"/>
<path d="M39.6924 27.5596L33.7756 25.0247C33.596 24.9477 33.3933 24.9453 33.2119 25.0178C33.0306 25.0904 32.8855 25.232 32.8086 25.4115C32.7316 25.591 32.7292 25.7938 32.8017 25.9751C32.8743 26.1565 33.0159 26.3016 33.1954 26.3785L39.1113 28.9135C39.2908 28.9904 39.4935 28.9929 39.6749 28.9203C39.8562 28.8478 40.0014 28.7061 40.0783 28.5266C40.1552 28.3471 40.1577 28.1443 40.0851 27.963C40.0126 27.7816 39.871 27.6365 39.6914 27.5596H39.6924Z" fill="black" stroke="black"/>
<path d="M33.4696 15.4706C33.5633 15.4706 33.6561 15.4526 33.743 15.4176L39.7202 13.0254C39.9015 12.9528 40.0466 12.8112 40.1235 12.6316C40.2004 12.4521 40.2029 12.2493 40.1303 12.068C40.0577 11.8867 39.916 11.7416 39.7365 11.6647C39.557 11.5878 39.3542 11.5853 39.1729 11.6579L33.1957 14.0502C33.0368 14.1138 32.905 14.2308 32.823 14.381C32.741 14.5312 32.7138 14.7053 32.7462 14.8734C32.7786 15.0415 32.8685 15.193 33.0005 15.302C33.1325 15.411 33.2983 15.4706 33.4694 15.4706H33.4696Z" fill="black" stroke="black"/>
</g>
<defs>
<clipPath id="clip0_306_41">
<rect width="40.4772" height="40" fill="white"/>
</clipPath>
</defs>
</svg>
