<svg width="30" height="30" viewBox="0 0 30 30" fill="none" xmlns="http://www.w3.org/2000/svg">
<g clip-path="url(#clip0_114_588)">
<path d="M10.3124 22.3343C10.1893 22.3344 10.0673 22.3102 9.95359 22.2631C9.83983 22.216 9.73647 22.1469 9.64941 22.0599C9.56236 21.9728 9.49331 21.8695 9.44623 21.7557C9.39914 21.642 9.37494 21.52 9.375 21.3969V8.43739C9.37506 8.27294 9.41838 8.1114 9.50062 7.96899C9.58285 7.82658 9.7011 7.70831 9.8435 7.62605C9.98589 7.54379 10.1474 7.50044 10.3119 7.50035C10.4763 7.50026 10.6379 7.54344 10.7804 7.62554L22.0304 14.1028C22.1731 14.1849 22.2917 14.3032 22.3742 14.4458C22.4566 14.5884 22.5 14.7501 22.5 14.9148C22.5 15.0795 22.4566 15.2413 22.3742 15.3839C22.2917 15.5265 22.1731 15.6448 22.0304 15.7269L10.7822 22.2088C10.6394 22.2911 10.4773 22.3344 10.3124 22.3343ZM11.2498 10.0574V19.7728L19.6835 14.9123L11.2498 10.0574Z" fill="white"/>
<path d="M15 30C12.0333 30 9.13319 29.1203 6.66645 27.4721C4.19972 25.8238 2.27713 23.4811 1.14181 20.7403C0.00649914 17.9994 -0.290551 14.9834 0.288228 12.0737C0.867006 9.16394 2.29562 6.49119 4.3934 4.3934C6.49119 2.29562 9.16394 0.867006 12.0737 0.288228C14.9834 -0.290551 17.9994 0.00649914 20.7403 1.14181C23.4811 2.27713 25.8238 4.19972 27.4721 6.66645C29.1203 9.13319 30 12.0333 30 15C29.9955 18.9769 28.4137 22.7896 25.6016 25.6016C22.7896 28.4137 18.9769 29.9955 15 30ZM15 1.87524C12.404 1.87515 9.86635 2.64486 7.70785 4.08705C5.54934 5.52923 3.86698 7.57911 2.8735 9.97745C1.88003 12.3758 1.62006 15.0149 2.12649 17.561C2.63291 20.107 3.88298 22.4458 5.71861 24.2814C7.55423 26.117 9.89297 27.3671 12.4391 27.8735C14.9851 28.3799 17.6242 28.12 20.0226 27.1265C22.4209 26.133 24.4708 24.4507 25.913 22.2922C27.3552 20.1337 28.1249 17.596 28.1248 15C28.1207 11.5203 26.7367 8.18434 24.2762 5.72385C21.8157 3.26335 18.4797 1.87927 15 1.87524Z" fill="white"/>
</g>
<defs>
<clipPath id="clip0_114_588">
<rect width="30" height="30" fill="white"/>
</clipPath>
</defs>
</svg>
